<?xml version="1.0" encoding="utf-8"?>
<!DOCTYPE svg PUBLIC "-//W3C//DTD SVG 1.1//EN" "http://www.w3.org/Graphics/SVG/1.1/DTD/svg11.dtd">
<svg version="1.1" xmlns="http://www.w3.org/2000/svg" xmlns:xlink="http://www.w3.org/1999/xlink" x="0px" y="0px" width="800px" height="600px" viewBox="0 0 800 600" enable-background="new 0 0 800 600" xml:space="preserve">
<defs>
	<linearGradient id="grad" gradientUnits="userSpaceOnUse" x1="256.791" y1="-93.4648" x2="543.2094" y2="693.4636">
		<stop  offset="0" style="stop-color:#3E1D41"/>
		<stop  offset="0.23" style="stop-color:#82AD78"/>
		<stop  offset="0.37" style="stop-color:#91CB83"/>
		<stop  offset="0.46" style="stop-color:#93D085"/>
		<stop  offset="0.64" style="stop-color:#80A876"/>
		<stop  offset="0.96" style="stop-color:#3E1D41"/>
	</linearGradient>
	<filter id="filt" x="0" y="0">
		<feGaussianBlur stdDeviation="1" />
	</filter>
	<path id="hex" opacity="0.1" fill="#fff" d="M92,96 37,107 0,64 18,10 74,0 111,43z"/>
</defs>
<g filter="url(#filt)">
	<rect fill="url(#grad)" width="800" height="600"/>
	<use x="100" y="-40" xlink:href="#hex"/>
	<use x="120" y="50" xlink:href="#hex"/>
	<use x="25" y="80" xlink:href="#hex"/>
	<use x="390" y="-10" xlink:href="#hex"/>
	<use x="360" y="40" xlink:href="#hex"/>
	<use x="340" y="50" xlink:href="#hex"/>
	<use x="700" y="-40" xlink:href="#hex"/>
	<use x="700" y="50" xlink:href="#hex"/>
	<use x="680" y="-30" xlink:href="#hex"/>
	<use x="680" y="60" xlink:href="#hex"/>
	<use x="-60" y="170" xlink:href="#hex"/>
	<use x="20" y="200" xlink:href="#hex"/>
	<use x="0" y="230" xlink:href="#hex"/>
	<use x="0" y="400" xlink:href="#hex"/>
	<use x="-20" y="440" xlink:href="#hex"/>
	<use x="30" y="470" xlink:href="#hex"/>
	<use x="200" y="570" xlink:href="#hex"/>
	<use x="240" y="530" xlink:href="#hex"/>
	<use x="270" y="560" xlink:href="#hex"/>
	<use x="450" y="560" xlink:href="#hex"/>
	<use x="460" y="500" xlink:href="#hex"/>
	<use x="500" y="450" xlink:href="#hex"/>
	<use x="760" y="560" xlink:href="#hex"/>
	<use x="700" y="500" xlink:href="#hex"/>
	<use x="668" y="460" xlink:href="#hex"/>
	<use x="720" y="260" xlink:href="#hex"/>
	<use x="750" y="220" xlink:href="#hex"/>
	<use x="750" y="320" xlink:href="#hex"/>
	<use x="170" y="320" xlink:href="#hex"/>
	<use x="210" y="370" xlink:href="#hex"/>
	<use x="260" y="350" xlink:href="#hex"/>
	<use x="360" y="370" xlink:href="#hex"/>
	<use x="360" y="300" xlink:href="#hex"/>
	<use x="390" y="200" xlink:href="#hex"/>
	<use x="190" y="200" xlink:href="#hex"/>
	<use x="570" y="200" xlink:href="#hex"/>
	<use x="550" y="260" xlink:href="#hex"/>
	<use x="590" y="290" xlink:href="#hex"/>

<!--
	<use x="50" y="50" xlink:href="#hex"/>
	<use x="50" y="50" xlink:href="#hex"/>
	<use x="50" y="50" xlink:href="#hex"/>
-->
</g>
</svg>
