<?xml version="1.0" encoding="utf-8"?>
<!DOCTYPE svg PUBLIC "-//W3C//DTD SVG 1.1//EN" "http://www.w3.org/Graphics/SVG/1.1/DTD/svg11.dtd">
<svg version="1.1" id="Layer_1" xmlns="http://www.w3.org/2000/svg" xmlns:xlink="http://www.w3.org/1999/xlink" x="0px" y="0px"
	 width="94.3px" height="106.2px" viewBox="0 0 94.3 106.2" enable-background="new 0 0 94.3 106.2" xml:space="preserve">
<polygon id="b_1_" opacity="0.7" fill="#3D7776" stroke="#FFFFFF" stroke-width="0.2788" stroke-linecap="square" stroke-miterlimit="1" points="
	18.1,84 36.1,95.1 18.1,106.1 0.1,95.1 "/>
<polygon id="bl_1_" opacity="0.3" fill="#3E7C7F" stroke="#FFFFFF" stroke-width="0.2788" stroke-linecap="square" stroke-miterlimit="1" points="
	0.1,95.1 18.1,84 18.1,0.1 0.1,11.2 "/>
<polygon id="br_1_" opacity="0.3" fill="#3E7C7F" stroke="#FFFFFF" stroke-width="0.2788" stroke-linecap="square" stroke-miterlimit="1" points="
	36.1,95.1 18.1,84 18.1,0.1 36.1,11.2 "/>
<g id="_x30_c">

		<polygon id="b_8_" opacity="0.7" fill="#326466" stroke="#FFFFFF" stroke-width="0.25" stroke-linecap="square" stroke-miterlimit="1" points="
		78.1,83 94.1,93 78.1,103 62.1,93 	"/>

		<polygon id="bl_8_" opacity="0.7" fill="#3E7C7F" stroke="#FFFFFF" stroke-width="0.25" stroke-linecap="square" stroke-miterlimit="1" points="
		62.1,93 78.1,83 78.1,65 62.1,75 	"/>

		<polygon id="br_8_" opacity="0.7" fill="#3E7C7F" stroke="#FFFFFF" stroke-width="0.25" stroke-linecap="square" stroke-miterlimit="1" points="
		94.1,93 78.1,83 78.1,65 94.1,75 	"/>

		<polygon id="fl_8_" opacity="0.7" fill="#60BDCC" stroke="#FFFFFF" stroke-width="0.25" stroke-linecap="square" stroke-miterlimit="1" points="
		62.1,75 78.1,85 78.1,103 62.1,93 	"/>

		<polygon id="fr_8_" opacity="0.7" fill="#60BDCC" stroke="#FFFFFF" stroke-width="0.25" stroke-linecap="square" stroke-miterlimit="1" points="
		94.1,75 78.1,85 78.1,103 94.1,93 	"/>

		<polygon id="t_7_" opacity="0.7" fill="#6CD4E5" stroke="#FFFFFF" stroke-width="0.25" stroke-linecap="square" stroke-miterlimit="1" points="
		78.1,65 94.1,75 78.1,85 62.1,75 	"/>
	<text transform="matrix(1 0 0 1 65.8892 91.5122)" fill="#F1F2F2" font-family="'Helvetica-Bold'" font-size="8">x</text>
</g>
<g id="_x30_">

		<polygon id="b_2_" opacity="0.7" fill="#326466" stroke="#FFFFFF" stroke-width="0.25" stroke-linecap="square" stroke-miterlimit="1" points="
		18.1,83 34.1,93 18.1,103 2.1,93 	"/>

		<polygon id="bl_2_" opacity="0.7" fill="#3E7C7F" stroke="#FFFFFF" stroke-width="0.25" stroke-linecap="square" stroke-miterlimit="1" points="
		2.1,93 18.1,83 18.1,65 2.1,75 	"/>

		<polygon id="br_2_" opacity="0.7" fill="#3E7C7F" stroke="#FFFFFF" stroke-width="0.25" stroke-linecap="square" stroke-miterlimit="1" points="
		34.1,93 18.1,83 18.1,65 34.1,75 	"/>

		<polygon id="fl_2_" opacity="0.7" fill="#60BDCC" stroke="#FFFFFF" stroke-width="0.25" stroke-linecap="square" stroke-miterlimit="1" points="
		2.1,75 18.1,85 18.1,103 2.1,93 	"/>

		<polygon id="fr_2_" opacity="0.7" fill="#60BDCC" stroke="#FFFFFF" stroke-width="0.25" stroke-linecap="square" stroke-miterlimit="1" points="
		34.1,75 18.1,85 18.1,103 34.1,93 	"/>

		<polygon id="t_1_" opacity="0.7" fill="#6CD4E5" stroke="#FFFFFF" stroke-width="0.25" stroke-linecap="square" stroke-miterlimit="1" points="
		18.1,65 34.1,75 18.1,85 2.1,75 	"/>
	<text transform="matrix(1 0 0 1 5.8892 91.5122)" fill="#F1F2F2" font-family="'Helvetica-Bold'" font-size="8">[0]</text>
</g>
<g id="_x31_">

		<polygon id="b_5_" opacity="0.7" fill="#326466" stroke="#FFFFFF" stroke-width="0.25" stroke-linecap="square" stroke-miterlimit="1" points="
		18.1,63 34.1,73 18.1,83 2.1,73 	"/>

		<polygon id="bl_5_" opacity="0.7" fill="#3E7C7F" stroke="#FFFFFF" stroke-width="0.25" stroke-linecap="square" stroke-miterlimit="1" points="
		2.1,73 18.1,63 18.1,45 2.1,55 	"/>

		<polygon id="br_5_" opacity="0.7" fill="#3E7C7F" stroke="#FFFFFF" stroke-width="0.25" stroke-linecap="square" stroke-miterlimit="1" points="
		34.1,73 18.1,63 18.1,45 34.1,55 	"/>

		<polygon id="fl_1_" opacity="0.7" fill="#60BDCC" stroke="#FFFFFF" stroke-width="0.25" stroke-linecap="square" stroke-miterlimit="1" points="
		2.1,55 18.1,65 18.1,83 2.1,73 	"/>

		<polygon id="fr_1_" opacity="0.7" fill="#60BDCC" stroke="#FFFFFF" stroke-width="0.25" stroke-linecap="square" stroke-miterlimit="1" points="
		34.1,55 18.1,65 18.1,83 34.1,73 	"/>

		<polygon id="t_4_" opacity="0.7" fill="#6CD4E5" stroke="#FFFFFF" stroke-width="0.25" stroke-linecap="square" stroke-miterlimit="1" points="
		18.1,45 34.1,55 18.1,65 2.1,55 	"/>
	<text transform="matrix(1 0 0 1 5.8892 71.5122)" fill="#F1F2F2" font-family="'Helvetica-Bold'" font-size="8">[1]</text>
</g>
<g id="_x32_">

		<polygon id="b_6_" opacity="0.7" fill="#326466" stroke="#FFFFFF" stroke-width="0.25" stroke-linecap="square" stroke-miterlimit="1" points="
		18.1,43 34.1,53 18.1,63 2.1,53 	"/>

		<polygon id="bl_6_" opacity="0.7" fill="#3E7C7F" stroke="#FFFFFF" stroke-width="0.25" stroke-linecap="square" stroke-miterlimit="1" points="
		2.1,53 18.1,43 18.1,25 2.1,35 	"/>

		<polygon id="br_6_" opacity="0.7" fill="#3E7C7F" stroke="#FFFFFF" stroke-width="0.25" stroke-linecap="square" stroke-miterlimit="1" points="
		34.1,53 18.1,43 18.1,25 34.1,35 	"/>

		<polygon id="fl_6_" opacity="0.7" fill="#60BDCC" stroke="#FFFFFF" stroke-width="0.25" stroke-linecap="square" stroke-miterlimit="1" points="
		2.1,35 18.1,45 18.1,63 2.1,53 	"/>

		<polygon id="fr_6_" opacity="0.7" fill="#60BDCC" stroke="#FFFFFF" stroke-width="0.25" stroke-linecap="square" stroke-miterlimit="1" points="
		34.1,35 18.1,45 18.1,63 34.1,53 	"/>

		<polygon id="t_5_" opacity="0.7" fill="#6CD4E5" stroke="#FFFFFF" stroke-width="0.25" stroke-linecap="square" stroke-miterlimit="1" points="
		18.1,25 34.1,35 18.1,45 2.1,35 	"/>
	<text transform="matrix(1 0 0 1 5.8892 51.5122)" fill="#F1F2F2" font-family="'Helvetica-Bold'" font-size="8">[2]</text>
</g>
<linearGradient id="fl_3_" gradientUnits="userSpaceOnUse" x1="0.1392" y1="58.645" x2="18.1392" y2="58.645">
	<stop  offset="0" style="stop-color:#B2B7BA"/>
	<stop  offset="1.000000e-02" style="stop-color:#A2AFB5"/>
	<stop  offset="3.000000e-02" style="stop-color:#8A949D"/>
	<stop  offset="4.000000e-02" style="stop-color:#A4B0B5;stop-opacity:0"/>
	<stop  offset="0.2" style="stop-color:#A7B1B6;stop-opacity:0"/>
	<stop  offset="0.23" style="stop-color:#8A949D"/>
	<stop  offset="0.34" style="stop-color:#8A949D"/>
	<stop  offset="0.45" style="stop-color:#A7B1B6;stop-opacity:0"/>
	<stop  offset="0.97" style="stop-color:#A7B1B6;stop-opacity:0"/>
	<stop  offset="0.98" style="stop-color:#5F6468"/>
	<stop  offset="0.99" style="stop-color:#919BA4"/>
	<stop  offset="1" style="stop-color:#848A97"/>
</linearGradient>
<polygon id="fl_5_" opacity="0.7" fill="url(#fl_3_)" stroke="#FFFFFF" stroke-width="0.2788" stroke-linecap="square" stroke-miterlimit="1" points="
	0.1,11.2 18.1,22.2 18.1,106.1 0.1,95.1 "/>
<linearGradient id="fr_3_" gradientUnits="userSpaceOnUse" x1="36.1392" y1="58.645" x2="18.1396" y2="58.645">
	<stop  offset="0" style="stop-color:#B2B7BA"/>
	<stop  offset="1.000000e-02" style="stop-color:#A2AFB5"/>
	<stop  offset="3.000000e-02" style="stop-color:#8A949D"/>
	<stop  offset="4.000000e-02" style="stop-color:#A4B0B5;stop-opacity:0"/>
	<stop  offset="0.2" style="stop-color:#A7B1B6;stop-opacity:0"/>
	<stop  offset="0.23" style="stop-color:#8A949D"/>
	<stop  offset="0.34" style="stop-color:#8A949D"/>
	<stop  offset="0.45" style="stop-color:#A7B1B6;stop-opacity:0"/>
	<stop  offset="0.97" style="stop-color:#A7B1B6;stop-opacity:0"/>
	<stop  offset="0.98" style="stop-color:#5F6468"/>
	<stop  offset="0.99" style="stop-color:#919BA4"/>
	<stop  offset="1" style="stop-color:#848A97"/>
</linearGradient>
<polygon id="fr_5_" opacity="0.7" fill="url(#fr_3_)" stroke="#FFFFFF" stroke-width="0.2788" stroke-linecap="square" stroke-miterlimit="1" points="
	36.1,11.2 18.1,22.2 18.1,106.1 36.1,95.1 "/>
<g opacity="0.7">
	<g>
		<path fill="none" stroke="#6CD4E5" stroke-miterlimit="10" d="M53.9,35.1c0,0,17.2-1.7,22.5,9"/>
		<g>
			<polygon fill="#6CD4E5" points="70.9,43.9 77.9,51.1 80.6,41.5 			"/>
		</g>
	</g>
</g>
</svg>
