<?xml version="1.0" encoding="utf-8"?>
<!DOCTYPE svg PUBLIC "-//W3C//DTD SVG 1.1//EN" "http://www.w3.org/Graphics/SVG/1.1/DTD/svg11.dtd">
<svg version="1.1" id="Layer_1" xmlns="http://www.w3.org/2000/svg" xmlns:xlink="http://www.w3.org/1999/xlink" x="0px" y="0px"
	 width="94.3px" height="106.2px" viewBox="0 0 94.3 106.2" enable-background="new 0 0 94.3 106.2" xml:space="preserve">
<polygon id="b_1_" opacity="0.7" fill="#3D7776" stroke="#FFFFFF" stroke-width="0.2788" stroke-linecap="square" stroke-miterlimit="1" points="
	76.1,84 94.1,95.1 76.1,106.1 58.1,95.1 "/>
<polygon id="bl_1_" opacity="0.3" fill="#3E7C7F" stroke="#FFFFFF" stroke-width="0.2788" stroke-linecap="square" stroke-miterlimit="1" points="
	58.1,95.1 76.1,84 76.1,0.1 58.1,11.2 "/>
<polygon id="br_1_" opacity="0.3" fill="#3E7C7F" stroke="#FFFFFF" stroke-width="0.2788" stroke-linecap="square" stroke-miterlimit="1" points="
	94.1,95.1 76.1,84 76.1,0.1 94.1,11.2 "/>
<g id="_x30_a">

		<polygon id="b_3_" opacity="0.7" fill="#326466" stroke="#FFFFFF" stroke-width="0.25" stroke-linecap="square" stroke-miterlimit="1" points="
		16.1,83 32.1,93 16.1,103 0.1,93 	"/>

		<polygon id="bl_3_" opacity="0.7" fill="#3E7C7F" stroke="#FFFFFF" stroke-width="0.25" stroke-linecap="square" stroke-miterlimit="1" points="
		0.1,93 16.1,83 16.1,65 0.1,75 	"/>

		<polygon id="br_3_" opacity="0.7" fill="#3E7C7F" stroke="#FFFFFF" stroke-width="0.25" stroke-linecap="square" stroke-miterlimit="1" points="
		32.1,93 16.1,83 16.1,65 32.1,75 	"/>

		<polygon id="fl_3_" opacity="0.7" fill="#60BDCC" stroke="#FFFFFF" stroke-width="0.25" stroke-linecap="square" stroke-miterlimit="1" points="
		0.1,75 16.1,85 16.1,103 0.1,93 	"/>

		<polygon id="fr_3_" opacity="0.7" fill="#60BDCC" stroke="#FFFFFF" stroke-width="0.25" stroke-linecap="square" stroke-miterlimit="1" points="
		32.1,75 16.1,85 16.1,103 32.1,93 	"/>

		<polygon id="t_2_" opacity="0.7" fill="#6CD4E5" stroke="#FFFFFF" stroke-width="0.25" stroke-linecap="square" stroke-miterlimit="1" points="
		16.1,65 32.1,75 16.1,85 0.1,75 	"/>
	<text transform="matrix(1 0 0 1 3.875 91.5127)" fill="#F1F2F2" font-family="'Helvetica-Bold'" font-size="8">a</text>
</g>
<g id="_x30_">

		<polygon id="b_2_" opacity="0.7" fill="#326466" stroke="#FFFFFF" stroke-width="0.25" stroke-linecap="square" stroke-miterlimit="1" points="
		76.1,83 92.1,93 76.1,103 60.1,93 	"/>

		<polygon id="bl_2_" opacity="0.7" fill="#3E7C7F" stroke="#FFFFFF" stroke-width="0.25" stroke-linecap="square" stroke-miterlimit="1" points="
		60.1,93 76.1,83 76.1,65 60.1,75 	"/>

		<polygon id="br_2_" opacity="0.7" fill="#3E7C7F" stroke="#FFFFFF" stroke-width="0.25" stroke-linecap="square" stroke-miterlimit="1" points="
		92.1,93 76.1,83 76.1,65 92.1,75 	"/>

		<polygon id="fl_2_" opacity="0.7" fill="#60BDCC" stroke="#FFFFFF" stroke-width="0.25" stroke-linecap="square" stroke-miterlimit="1" points="
		60.1,75 76.1,85 76.1,103 60.1,93 	"/>

		<polygon id="fr_2_" opacity="0.7" fill="#60BDCC" stroke="#FFFFFF" stroke-width="0.25" stroke-linecap="square" stroke-miterlimit="1" points="
		92.1,75 76.1,85 76.1,103 92.1,93 	"/>

		<polygon id="t_1_" opacity="0.7" fill="#6CD4E5" stroke="#FFFFFF" stroke-width="0.25" stroke-linecap="square" stroke-miterlimit="1" points="
		76.1,65 92.1,75 76.1,85 60.1,75 	"/>
	<text transform="matrix(1 0 0 1 63.875 91.5127)" fill="#F1F2F2" font-family="'Helvetica-Bold'" font-size="8">[0]</text>
</g>
<g id="_x31_">

		<polygon id="b_5_" opacity="0.7" fill="#326466" stroke="#FFFFFF" stroke-width="0.25" stroke-linecap="square" stroke-miterlimit="1" points="
		76.1,63 92.1,73 76.1,83 60.1,73 	"/>

		<polygon id="bl_5_" opacity="0.7" fill="#3E7C7F" stroke="#FFFFFF" stroke-width="0.25" stroke-linecap="square" stroke-miterlimit="1" points="
		60.1,73 76.1,63 76.1,45 60.1,55 	"/>

		<polygon id="br_5_" opacity="0.7" fill="#3E7C7F" stroke="#FFFFFF" stroke-width="0.25" stroke-linecap="square" stroke-miterlimit="1" points="
		92.1,73 76.1,63 76.1,45 92.1,55 	"/>

		<polygon id="fl_1_" opacity="0.7" fill="#60BDCC" stroke="#FFFFFF" stroke-width="0.25" stroke-linecap="square" stroke-miterlimit="1" points="
		60.1,55 76.1,65 76.1,83 60.1,73 	"/>

		<polygon id="fr_1_" opacity="0.7" fill="#60BDCC" stroke="#FFFFFF" stroke-width="0.25" stroke-linecap="square" stroke-miterlimit="1" points="
		92.1,55 76.1,65 76.1,83 92.1,73 	"/>

		<polygon id="t_4_" opacity="0.7" fill="#6CD4E5" stroke="#FFFFFF" stroke-width="0.25" stroke-linecap="square" stroke-miterlimit="1" points="
		76.1,45 92.1,55 76.1,65 60.1,55 	"/>
	<text transform="matrix(1 0 0 1 63.875 71.5127)" fill="#F1F2F2" font-family="'Helvetica-Bold'" font-size="8">[1]</text>
</g>
<g id="_x32_">

		<polygon id="b_6_" opacity="0.7" fill="#326466" stroke="#FFFFFF" stroke-width="0.25" stroke-linecap="square" stroke-miterlimit="1" points="
		76.1,43 92.1,53 76.1,63 60.1,53 	"/>

		<polygon id="bl_6_" opacity="0.7" fill="#3E7C7F" stroke="#FFFFFF" stroke-width="0.25" stroke-linecap="square" stroke-miterlimit="1" points="
		60.1,53 76.1,43 76.1,25 60.1,35 	"/>

		<polygon id="br_6_" opacity="0.7" fill="#3E7C7F" stroke="#FFFFFF" stroke-width="0.25" stroke-linecap="square" stroke-miterlimit="1" points="
		92.1,53 76.1,43 76.1,25 92.1,35 	"/>

		<polygon id="fl_6_" opacity="0.7" fill="#60BDCC" stroke="#FFFFFF" stroke-width="0.25" stroke-linecap="square" stroke-miterlimit="1" points="
		60.1,35 76.1,45 76.1,63 60.1,53 	"/>

		<polygon id="fr_6_" opacity="0.7" fill="#60BDCC" stroke="#FFFFFF" stroke-width="0.25" stroke-linecap="square" stroke-miterlimit="1" points="
		92.1,35 76.1,45 76.1,63 92.1,53 	"/>

		<polygon id="t_5_" opacity="0.7" fill="#6CD4E5" stroke="#FFFFFF" stroke-width="0.25" stroke-linecap="square" stroke-miterlimit="1" points="
		76.1,25 92.1,35 76.1,45 60.1,35 	"/>
	<text transform="matrix(1 0 0 1 63.875 51.5127)" fill="#F1F2F2" font-family="'Helvetica-Bold'" font-size="8">[2]</text>
</g>
<linearGradient id="fl_4_" gradientUnits="userSpaceOnUse" x1="58.125" y1="58.6455" x2="76.125" y2="58.6455">
	<stop  offset="0" style="stop-color:#B2B7BA"/>
	<stop  offset="1.000000e-02" style="stop-color:#A2AFB5"/>
	<stop  offset="3.000000e-02" style="stop-color:#8A949D"/>
	<stop  offset="4.000000e-02" style="stop-color:#A4B0B5;stop-opacity:0"/>
	<stop  offset="0.2" style="stop-color:#A7B1B6;stop-opacity:0"/>
	<stop  offset="0.23" style="stop-color:#8A949D"/>
	<stop  offset="0.34" style="stop-color:#8A949D"/>
	<stop  offset="0.45" style="stop-color:#A7B1B6;stop-opacity:0"/>
	<stop  offset="0.97" style="stop-color:#A7B1B6;stop-opacity:0"/>
	<stop  offset="0.98" style="stop-color:#5F6468"/>
	<stop  offset="0.99" style="stop-color:#919BA4"/>
	<stop  offset="1" style="stop-color:#848A97"/>
</linearGradient>
<polygon id="fl_5_" opacity="0.7" fill="url(#fl_4_)" stroke="#FFFFFF" stroke-width="0.2788" stroke-linecap="square" stroke-miterlimit="1" points="
	58.1,11.2 76.1,22.2 76.1,106.1 58.1,95.1 "/>
<linearGradient id="fr_4_" gradientUnits="userSpaceOnUse" x1="94.125" y1="58.6455" x2="76.1255" y2="58.6455">
	<stop  offset="0" style="stop-color:#B2B7BA"/>
	<stop  offset="1.000000e-02" style="stop-color:#A2AFB5"/>
	<stop  offset="3.000000e-02" style="stop-color:#8A949D"/>
	<stop  offset="4.000000e-02" style="stop-color:#A4B0B5;stop-opacity:0"/>
	<stop  offset="0.2" style="stop-color:#A7B1B6;stop-opacity:0"/>
	<stop  offset="0.23" style="stop-color:#8A949D"/>
	<stop  offset="0.34" style="stop-color:#8A949D"/>
	<stop  offset="0.45" style="stop-color:#A7B1B6;stop-opacity:0"/>
	<stop  offset="0.97" style="stop-color:#A7B1B6;stop-opacity:0"/>
	<stop  offset="0.98" style="stop-color:#5F6468"/>
	<stop  offset="0.99" style="stop-color:#919BA4"/>
	<stop  offset="1" style="stop-color:#848A97"/>
</linearGradient>
<polygon id="fr_5_" opacity="0.7" fill="url(#fr_4_)" stroke="#FFFFFF" stroke-width="0.2788" stroke-linecap="square" stroke-miterlimit="1" points="
	94.1,11.2 76.1,22.2 76.1,106.1 94.1,95.1 "/>
<g opacity="0.7">
	<g>
		<path fill="none" stroke="#6CD4E5" stroke-miterlimit="10" d="M16.1,49c0,0-1.7-17.2,9-22.5"/>
		<g>
			<polygon fill="#6CD4E5" points="25,32 32.1,25 22.5,22.3 			"/>
		</g>
	</g>
</g>
</svg>
